# xmcd
#
# Track frame offsets: 
#        150
#        13298
#        24900
#        35565
#        46446
#        55883
#        67931
#        79778
#        90775
#        100092
#
# Disc length: 1480 seconds
#
# Revision: 0
# Processed by: cddbd v1.5.2PL0 Copyright (c) Steve Scherf et al.
# Submitted via: ExactAudioCopy v1.0b1
#
DISCID=6f05c60a
DTITLE=The Staple Singers - Why? (Am I Treated So Bad) 
DYEAR=1966
DGENRE=Soul
TTITLE0=Why? (Am I Treated So Bad)
TTITLE1=King Of Kings
TTITLE2=Step Aside
TTITLE3=If I Could Hear My Mother Pray Again
TTITLE4=What Ate They Doing? (In Heaven Today)
TTITLE5=Will The Circle Be Unbroken
TTITLE6=I've Been Scared
TTITLE7=I'm Gonna Tell God (About My Trouble)
TTITLE8=My Sweet Home
TTITLE9=Move Along Train
EXTD=
EXTT0=
EXTT1=
EXTT2=
EXTT3=
EXTT4=
EXTT5=
EXTT6=
EXTT7=
EXTT8=
EXTT9=
PLAYORDER=
